<?xml version="1.0" standalone="no"?>
<!DOCTYPE svg PUBLIC "-//W3C//DTD SVG 20010904//EN"
 "http://www.w3.org/TR/2001/REC-SVG-20010904/DTD/svg10.dtd">
<svg version="1.0" xmlns="http://www.w3.org/2000/svg"
 width="616.000000pt" height="136.000000pt" viewBox="0 0 616.000000 136.000000"
 preserveAspectRatio="xMidYMid meet">

<g transform="translate(0.000000,136.000000) scale(0.100000,-0.100000)"
fill="#000000" stroke="none">
<path d="M0 680 l0 -680 3080 0 3080 0 0 680 0 680 -3080 0 -3080 0 0 -680z
m3546 134 l86 -115 79 107 c86 118 101 131 119 110 9 -12 -6 -38 -78 -137
l-90 -122 64 -86 c105 -141 116 -159 109 -170 -17 -28 -45 -5 -121 98 -43 61
-81 110 -84 110 -3 1 -41 -48 -85 -109 -75 -102 -104 -126 -120 -100 -3 5 33
63 80 127 47 65 87 121 88 125 1 3 -38 61 -86 128 -73 99 -87 123 -77 135 7 8
16 15 21 15 5 0 48 -52 95 -116z m782 87 c28 -14 42 -28 42 -41 0 -25 -16 -25
-71 0 -151 68 -309 -36 -309 -205 0 -164 145 -266 295 -209 73 28 85 29 85 5
0 -59 -200 -90 -286 -44 -114 60 -170 181 -144 307 19 95 83 167 177 202 53
20 157 13 211 -15z m-2228 0 c0 -27 -18 -31 -151 -31 l-119 0 0 -90 0 -89 118
-3 c109 -3 117 -4 117 -23 0 -19 -8 -20 -117 -23 l-118 -3 0 -99 0 -99 133 -3
c129 -3 132 -4 135 -26 l3 -23 -163 3 -163 3 -3 250 c-1 137 0 255 3 262 3 10
44 13 165 13 150 0 160 -1 160 -19z m508 -14 c26 -17 52 -46 69 -80 25 -47 28
-62 28 -152 0 -90 -3 -105 -28 -152 -17 -34 -43 -63 -69 -80 -40 -27 -45 -28
-187 -28 l-146 0 -3 263 -2 263 148 -3 c143 -3 150 -4 190 -31z m322 -169 c5
-178 7 -199 25 -224 65 -86 181 -82 249 10 19 25 21 44 24 222 4 194 4 195 25
192 21 -3 22 -7 25 -176 1 -100 -2 -190 -8 -213 -22 -80 -111 -149 -195 -149
-83 0 -172 68 -194 147 -12 42 -15 376 -4 387 4 4 16 6 28 4 19 -3 20 -11 25
-200z m1920 183 c0 -27 -18 -31 -151 -31 l-119 0 0 -90 0 -89 118 -3 c109 -3
117 -4 117 -23 0 -19 -8 -20 -117 -23 l-118 -3 0 -99 0 -99 133 -3 c129 -3
132 -4 135 -26 l3 -23 -163 3 -163 3 -3 250 c-1 137 0 255 3 262 3 10 44 13
165 13 150 0 160 -1 160 -19z m218 -223 l2 -238 123 0 c127 0 154 -7 144 -34
-6 -14 -26 -16 -159 -14 l-153 3 -3 263 -2 263 22 -3 23 -3 3 -237z"/>
<path d="M2320 655 l0 -215 109 0 c95 0 112 3 142 23 110 72 110 312 0 384
-30 20 -47 23 -142 23 l-109 0 0 -215z"/>
</g>
</svg>
