<svg version="1.1" id="Layer_1" xmlns="http://www.w3.org/2000/svg" xmlns:xlink="http://www.w3.org/1999/xlink" x="0px" y="0px"
	 width="100%" viewBox="0 0 665 435" enable-background="new 0 0 665 435" xml:space="preserve">
<path fill="#000000" opacity="1.000000" stroke="none" 
	d="
M430.000000,436.000000 
	C286.699127,436.000000 143.898239,436.000000 1.048680,436.000000 
	C1.048680,291.065399 1.048680,146.130814 1.048680,1.098099 
	C222.550858,1.098099 444.101776,1.098099 665.826355,1.098099 
	C665.826355,145.999832 665.826355,290.999908 665.826355,436.000000 
	C587.464172,436.000000 508.982086,436.000000 430.000000,436.000000 
M222.500031,161.835693 
	C175.008041,161.836548 127.515923,161.770615 80.024132,161.865631 
	C55.160439,161.915390 35.483719,177.090591 31.675549,200.964859 
	C29.677847,213.488892 30.412674,226.561447 30.933687,239.344711 
	C31.521402,253.764542 38.277596,265.314148 49.840466,274.118256 
	C59.459000,281.441895 70.364388,283.865936 82.178978,283.863220 
	C251.152084,283.824097 420.125214,283.836731 589.098328,283.834351 
	C590.597717,283.834320 592.099182,283.843353 593.596252,283.774048 
	C618.517883,282.620667 637.908569,264.729767 640.076599,240.077164 
	C641.021851,229.328583 640.930481,218.443695 640.610962,207.641388 
	C640.275146,196.287170 635.901245,186.240067 628.307739,177.767487 
	C617.957214,166.218765 604.752136,161.765442 589.441772,161.778351 
	C467.461273,161.881180 345.480621,161.835678 222.500031,161.835693 
z"/>
<path fill="#4C7CFF" opacity="1.000000" stroke="none" 
	d="
M223.000031,161.835663 
	C345.480621,161.835678 467.461273,161.881180 589.441772,161.778351 
	C604.752136,161.765442 617.957214,166.218765 628.307739,177.767487 
	C635.901245,186.240067 640.275146,196.287170 640.610962,207.641388 
	C640.930481,218.443695 641.021851,229.328583 640.076599,240.077164 
	C637.908569,264.729767 618.517883,282.620667 593.596252,283.774048 
	C592.099182,283.843353 590.597717,283.834320 589.098328,283.834351 
	C420.125214,283.836731 251.152084,283.824097 82.178978,283.863220 
	C70.364388,283.865936 59.459000,281.441895 49.840466,274.118256 
	C38.277596,265.314148 31.521402,253.764542 30.933687,239.344711 
	C30.412674,226.561447 29.677847,213.488892 31.675549,200.964859 
	C35.483719,177.090591 55.160439,161.915390 80.024132,161.865631 
	C127.515923,161.770615 175.008041,161.836548 223.000031,161.835663 
M633.146973,196.447952 
	C632.948547,195.824631 632.750122,195.201324 632.505005,194.016449 
	C632.252808,193.520126 632.000549,193.023804 631.619995,191.964981 
	C631.311951,191.481979 631.003967,190.998993 630.496887,189.880051 
	C629.630615,188.399567 628.764404,186.919083 627.611755,184.816788 
	C625.799072,182.815994 623.986389,180.815201 621.851135,178.244537 
	C620.165344,176.944977 618.479553,175.645416 616.290344,173.876160 
	C614.088623,172.692749 611.886902,171.509323 609.059814,169.938309 
	C606.030823,169.351913 603.001892,168.765533 599.237183,168.079834 
	C597.830566,168.288361 596.423889,168.496887 595.002869,168.069046 
	C594.061279,167.589645 593.119629,167.110260 591.224915,166.737015 
	C589.392639,166.754196 587.560425,166.786423 585.728149,166.786453 
	C418.134766,166.788788 250.541367,166.788284 82.947975,166.793488 
	C81.284271,166.793549 79.620575,166.866531 77.538857,166.477432 
	C77.027954,167.345245 76.517052,168.213074 75.171127,169.139038 
	C73.779350,169.091843 72.387581,169.044647 70.504211,168.904892 
	C70.339951,168.933502 70.175682,168.962097 70.000305,169.000000 
	C70.000305,169.000000 70.007095,168.989227 69.987572,168.449600 
	C69.845070,168.210220 69.702560,167.970825 69.560051,167.731445 
	C69.393425,168.194031 69.226799,168.656631 68.672737,169.490494 
	C68.495743,169.516281 68.318741,169.542084 67.913086,168.851532 
	C66.922562,168.993820 65.932037,169.136093 64.274048,169.207047 
	C63.494534,169.787506 62.715015,170.367966 61.995937,170.992172 
	C61.995937,170.992172 61.969398,170.922455 61.299053,170.516281 
	C58.937386,171.781250 56.575714,173.046219 53.641335,174.603210 
	C51.911709,176.058029 50.182087,177.512833 48.159798,178.953583 
	C47.947857,179.063354 47.883274,179.230118 47.375626,179.959732 
	C47.224518,180.630600 47.073414,181.301483 46.995533,181.985092 
	C46.995533,181.985092 46.945663,181.929962 46.283787,181.628860 
	C45.236809,182.890594 44.189827,184.152328 42.719650,185.832703 
	C42.266769,186.729126 41.813889,187.625565 41.005318,188.923309 
	C40.788612,189.411804 40.571907,189.900314 39.958637,190.895142 
	C39.557262,192.592255 39.155884,194.289352 38.207699,196.078033 
	C38.388554,196.723297 38.569408,197.368561 38.933926,198.698181 
	C38.675716,199.807434 38.417503,200.916702 37.870045,202.630783 
	C37.516396,203.417770 37.162746,204.204742 36.152668,205.138306 
	C35.774704,206.106430 35.396736,207.074570 35.032593,208.974686 
	C35.040436,218.608719 35.048279,228.242752 35.015694,238.580383 
	C35.618828,239.389481 36.221962,240.198563 36.983406,241.722549 
	C37.712387,243.470871 38.441368,245.219177 39.024334,247.492523 
	C38.948345,247.657516 38.872356,247.822495 38.247181,248.069656 
	C38.154804,248.709595 38.062431,249.349533 38.044685,250.389389 
	C38.035763,250.691727 38.161934,250.919098 38.577488,251.770737 
	C39.117981,252.822815 39.658474,253.874893 40.334839,255.554718 
	C41.329372,257.094879 42.323906,258.635010 43.700184,260.780884 
	C45.086014,262.438446 46.471844,264.096008 47.864948,265.936035 
	C47.864948,265.936035 48.162952,266.114502 48.517509,266.705963 
	C49.613354,267.514923 50.709198,268.323853 52.147255,269.713989 
	C54.457691,271.082245 56.768127,272.450500 59.609726,274.181213 
	C60.390400,274.512695 61.171070,274.844177 62.456478,275.714325 
	C64.990608,276.102783 67.524734,276.491241 70.064087,277.042236 
	C70.064087,277.042236 69.944489,277.152374 70.096115,277.775391 
	C71.071579,277.833282 72.047035,277.891144 73.875450,277.893036 
	C74.650856,278.156036 75.426270,278.419006 76.497604,279.068420 
	C76.997604,279.046051 77.497604,279.023712 78.935265,278.995270 
	C248.630524,278.996735 418.325806,278.998810 588.021057,278.991211 
	C589.680603,278.991119 591.340088,278.862274 593.757446,278.898560 
	C595.203247,278.667877 596.649109,278.437164 598.496765,278.648346 
	C599.334290,278.155548 600.171814,277.662750 601.489502,277.005463 
	C601.651428,276.956451 601.813293,276.907410 602.678162,277.043488 
	C603.799316,276.778778 604.920532,276.514069 606.829773,276.172272 
	C607.710083,275.482574 608.590393,274.792877 609.446594,274.013031 
	C609.446594,274.013031 609.533386,274.045593 609.917419,274.675323 
	C610.565308,274.405945 611.213196,274.136566 612.496521,273.743225 
	C614.136780,272.661926 615.777039,271.580658 618.062744,270.082458 
	C619.636841,268.769562 621.210999,267.456665 622.986328,266.121643 
	C622.986328,266.121643 623.154053,265.777100 623.800354,265.284454 
	C624.778198,264.002686 625.756042,262.720886 627.152771,261.162628 
	C628.714294,258.417816 630.275818,255.672989 632.128235,252.238831 
	C632.156860,251.496429 632.185486,250.754013 632.761536,249.914764 
	C632.578491,249.272629 632.395447,248.630478 632.053772,247.505280 
	C632.094604,247.340805 632.135498,247.176315 632.845276,246.990631 
	C633.285767,246.012970 633.726257,245.035309 633.991028,243.556549 
	C633.927063,243.391510 633.863098,243.226471 633.920166,242.526352 
	C633.977661,242.352753 634.035156,242.179169 634.797913,241.837509 
	C635.182007,240.518906 635.566101,239.200287 635.898315,236.959991 
	C635.898682,227.052689 635.899109,217.145401 635.970398,206.535904 
	C635.140991,205.056763 634.311646,203.577621 633.085999,201.614700 
	C633.024353,201.415604 632.962646,201.216507 633.496460,200.921936 
	C633.334900,199.938904 633.173340,198.955887 633.014099,197.538300 
	C633.014099,197.538300 633.033630,197.102173 633.146973,196.447952 
M36.424641,246.484482 
	C36.424641,246.484482 36.524170,246.428253 36.424641,246.484482 
M36.415462,199.482758 
	C36.415462,199.482758 36.529026,199.416565 36.415462,199.482758 
z"/>
<path fill="#010101" opacity="1.000000" stroke="none" 
	d="
M632.900879,201.017426 
	C632.962646,201.216507 633.024353,201.415604 633.253174,202.136353 
	C633.663452,204.033875 633.906555,205.409729 634.093384,207.166321 
	C634.024719,208.316498 634.012451,209.085938 633.633911,210.100723 
	C633.178772,216.099472 632.970398,221.854568 633.052185,227.605545 
	C633.092346,230.429825 633.670227,233.246445 633.940247,236.418579 
	C632.944153,238.856552 629.714783,240.914459 633.799133,243.061432 
	C633.863098,243.226471 633.927063,243.391510 633.792175,243.939682 
	C633.120972,245.219162 632.648621,246.115494 632.176331,247.011841 
	C632.135498,247.176315 632.094604,247.340805 632.079834,248.082642 
	C632.142029,249.110535 632.178101,249.561066 632.214111,250.011612 
	C632.185486,250.754013 632.156860,251.496429 631.765137,252.403534 
	C630.686523,252.528915 629.544495,252.185959 629.322327,252.498001 
	C627.419983,255.169647 625.684143,257.959930 623.737732,260.962921 
	C625.134399,261.184906 625.934143,261.312012 626.733887,261.439117 
	C625.756042,262.720886 624.778198,264.002686 623.373596,265.211731 
	C622.453186,265.075836 621.959595,265.012695 621.465942,264.949554 
	C621.905701,265.347626 622.345398,265.745697 622.785156,266.143738 
	C621.210999,267.456665 619.636841,268.769562 617.679199,269.884216 
	C616.189758,269.501831 614.983704,268.943909 613.997986,269.207977 
	C611.633728,269.841370 610.213257,271.236786 611.861084,273.867188 
	C611.213196,274.136566 610.565308,274.405945 609.559937,274.262817 
	C609.083862,273.815582 608.965210,273.780853 608.846558,273.746155 
	C609.054626,273.865173 609.262634,273.984192 609.470703,274.103180 
	C608.590393,274.792877 607.710083,275.482574 606.418091,275.864075 
	C605.381714,274.985718 604.756958,274.415558 604.132202,273.845398 
	C603.413208,274.849701 602.694214,275.854004 601.975220,276.858337 
	C601.813293,276.907410 601.651428,276.956451 600.974243,277.024536 
	C599.670898,277.431183 598.882935,277.818817 598.094910,278.206451 
	C596.649109,278.437164 595.203247,278.667877 593.378296,278.702911 
	C592.999084,278.507263 592.999268,278.220978 593.311890,277.965881 
	C592.463623,277.173096 591.302856,276.164856 590.141785,276.164398 
	C421.881256,276.096252 253.620743,276.101746 85.360229,276.097931 
	C83.028862,276.097870 80.663338,275.782043 78.384064,276.106873 
	C77.551178,276.225586 76.923157,277.781647 76.201675,278.682007 
	C75.426270,278.419006 74.650856,278.156036 73.409981,277.657990 
	C71.944504,277.332764 70.944496,277.242554 69.944489,277.152374 
	C69.944489,277.152374 70.064087,277.042236 70.013123,276.568909 
	C67.679115,272.418060 64.852730,273.472076 61.951740,275.175659 
	C61.171070,274.844177 60.390400,274.512695 59.477112,273.735535 
	C57.496059,270.999115 55.647614,268.708344 53.761421,266.370789 
	C52.912861,267.568787 52.358952,268.350800 51.805046,269.132812 
	C50.709198,268.323853 49.613354,267.514923 48.663696,266.326050 
	C48.900097,265.461487 48.990314,264.976807 49.080524,264.492157 
	C48.672909,264.912628 48.265293,265.333069 47.857677,265.753540 
	C46.471844,264.096008 45.086014,262.438446 43.866783,260.445251 
	C44.431980,259.568726 45.295700,258.798737 45.159103,258.521423 
	C43.242718,254.630783 41.189964,250.807297 39.170349,246.967499 
	C38.441368,245.219177 37.712387,243.470871 37.026466,241.068985 
	C37.319550,239.650284 37.569576,238.885162 37.864525,237.837006 
	C37.611160,237.070404 37.312866,236.586792 37.375919,235.856720 
	C37.824341,229.179901 38.009373,222.748672 37.949398,216.319717 
	C37.925999,213.811111 37.351414,211.307648 37.068943,208.617401 
	C37.110012,208.432968 37.058651,208.058578 37.313026,207.886261 
	C37.314632,206.806534 37.061863,205.899124 36.809097,204.991730 
	C37.162746,204.204742 37.516396,203.417770 38.358032,202.242065 
	C39.890030,198.871399 40.934044,195.889450 42.262676,192.734009 
	C44.049324,189.717972 45.551353,186.875458 47.077274,184.049301 
	C47.101166,184.065659 47.158035,184.076614 47.492195,184.209503 
	C49.240189,182.569580 50.654030,180.796783 52.044891,179.011597 
	C52.021919,178.999191 52.025379,179.051071 52.382660,179.123459 
	C52.845181,178.800171 52.950424,178.404510 53.026554,178.002640 
	C52.997440,177.996445 53.000916,178.055862 53.351448,178.206329 
	C56.151127,176.581345 58.600277,174.805893 61.024208,173.024963 
	C60.998985,173.019485 61.022057,173.066483 61.391129,173.199173 
	C63.887383,172.077209 66.014565,170.822556 68.141747,169.567902 
	C68.318741,169.542084 68.495743,169.516281 69.110748,169.327667 
	C69.548759,169.164856 70.007095,168.989227 70.007095,168.989227 
	C70.007095,168.989227 70.000305,169.000000 70.053169,169.174423 
	C70.402618,169.231705 70.699211,169.114578 70.995804,168.997467 
	C72.387581,169.044647 73.779350,169.091843 75.921967,169.197937 
	C77.116516,169.152496 77.560226,169.048172 78.465309,168.993408 
	C80.258698,169.027832 81.590706,168.999496 82.922714,168.999481 
	C251.607819,168.997543 420.292908,168.998245 588.978027,168.989975 
	C590.636169,168.989883 592.294373,168.872467 594.225342,168.851990 
	C594.671265,168.831238 594.844238,168.768326 595.017273,168.705414 
	C596.423889,168.496887 597.830566,168.288361 599.618408,168.363007 
	C599.999695,168.646164 600.062256,169.109726 600.138062,169.444717 
	C603.469849,170.871231 606.725769,171.962753 609.991272,173.027893 
	C610.000854,173.001495 609.951599,173.028595 609.969604,173.397034 
	C610.660339,173.862015 611.333069,173.958557 612.003662,174.025574 
	C612.001526,173.996048 611.946228,174.017258 611.886719,174.368134 
	C613.879517,175.830933 615.931885,176.942841 617.991943,178.027283 
	C617.999634,177.999802 617.946472,178.020706 617.843262,178.361725 
	C618.148132,178.817444 618.556274,178.932144 618.980957,179.022644 
	C618.997559,178.998444 618.955750,179.041046 618.890808,179.384460 
	C620.225708,180.976685 621.625549,182.225494 623.012756,183.647003 
	C623.000122,183.819717 623.106201,184.149414 623.301636,184.413406 
	C624.005432,184.801392 624.513855,184.925400 625.021851,185.014282 
	C625.021545,184.979172 624.951660,184.972397 624.761230,185.289108 
	C625.373108,186.754318 626.175476,187.902802 626.989380,189.025940 
	C627.000854,189.000580 626.945435,189.005737 626.972900,189.314270 
	C627.330139,189.766800 627.659912,189.910797 627.995422,190.026535 
	C628.001099,189.998291 627.944824,190.010590 627.865295,190.370575 
	C628.837158,192.822708 629.888489,194.914871 630.927368,197.255905 
	C630.914856,197.504776 631.071716,197.977798 631.051086,198.306702 
	C631.653931,199.429535 632.277405,200.223480 632.900879,201.017426 
M294.698914,242.116898 
	C298.657440,233.775909 299.074524,225.099625 296.768646,216.306610 
	C294.053223,205.951996 287.028412,200.239639 276.379639,199.757690 
	C270.231049,199.479416 264.059631,199.742859 257.900391,199.644730 
	C255.083572,199.599854 253.613678,200.401718 253.636673,203.603470 
	C253.745514,218.755447 253.737625,233.908966 253.640991,249.061111 
	C253.621460,252.121429 254.768921,253.157364 257.771820,253.075089 
	C263.761810,252.910980 269.763489,252.887009 275.752991,253.060379 
	C284.048035,253.300491 290.146149,249.823273 294.698914,242.116898 
M479.253265,245.334702 
	C479.256012,253.038803 479.256012,253.038879 487.178741,253.038971 
	C494.010193,253.039062 500.846649,253.178055 507.669373,252.934082 
	C509.232452,252.878204 510.748352,251.503494 512.285950,250.735733 
	C510.734253,249.899033 509.205566,248.393845 507.626984,248.339569 
	C500.187653,248.083771 492.734619,248.225632 485.220154,248.225632 
	C485.220154,241.238770 485.220154,234.709625 485.220154,228.013824 
	C491.715210,228.013824 497.872314,228.161606 504.013641,227.915451 
	C505.658203,227.849548 507.254578,226.581543 508.873077,225.865417 
	C507.252228,224.931320 505.668213,223.276489 504.003967,223.191437 
	C497.743896,222.871521 491.457672,223.063141 485.233276,223.063141 
	C485.233276,216.650757 485.233276,210.764999 485.233276,204.772400 
	C492.919403,204.772400 500.252960,204.920898 507.571533,204.655899 
	C509.169617,204.598038 510.714203,203.063705 512.283447,202.209351 
	C510.772858,201.356430 509.284302,199.815567 507.747894,199.766312 
	C499.924774,199.515518 492.084656,199.809891 484.259949,199.584625 
	C480.245148,199.469040 479.125885,201.032471 479.181030,204.881424 
	C479.369598,218.041779 479.253265,231.206482 479.253265,245.334702 
M204.253265,218.502304 
	C204.253403,228.498291 204.144836,238.496735 204.369003,248.487686 
	C204.403244,250.014114 205.930984,252.784576 206.843643,252.816483 
	C216.161591,253.142456 225.495880,253.069107 234.823257,252.939560 
	C235.644669,252.928162 236.449570,251.730026 237.262146,251.083099 
	C236.499680,250.157532 235.908722,248.826309 234.929886,248.412476 
	C233.790726,247.930878 232.312027,248.230591 230.980637,248.229080 
	C224.049301,248.221237 217.117966,248.225449 210.085052,248.225449 
	C210.085052,241.246780 210.085052,234.831848 210.085052,228.014084 
	C216.245209,228.014084 222.212143,228.198273 228.156006,227.908936 
	C230.098221,227.814407 231.980453,226.487396 233.890121,225.724045 
	C231.883209,224.836899 229.914017,223.304840 227.862228,223.184769 
	C221.949661,222.838821 216.003784,223.062622 210.112305,223.062622 
	C210.112305,216.684082 210.112305,210.921463 210.112305,204.769852 
	C217.965530,204.769852 225.592010,204.902832 233.205551,204.648468 
	C234.591904,204.602158 235.925400,202.974014 237.283279,202.076080 
	C235.895157,201.267776 234.525070,199.798660 233.115921,199.760162 
	C224.958618,199.537323 216.791245,199.720505 208.629166,199.617508 
	C205.470795,199.577652 204.070053,200.708908 204.207169,204.011124 
	C204.393631,208.501587 204.253387,213.005585 204.253265,218.502304 
M348.189972,240.129486 
	C344.053680,247.169830 337.810638,250.282623 331.337463,248.532196 
	C323.987091,246.544571 319.807678,240.850784 319.760437,232.556137 
	C319.705505,222.906464 319.850037,213.253815 319.624298,203.609100 
	C319.593964,202.313385 317.907379,201.056427 316.987762,199.781540 
	C316.076294,201.067093 314.401428,202.336685 314.374207,203.640701 
	C314.158936,213.951675 314.036438,224.275299 314.320831,234.583023 
	C314.616455,245.297195 323.403839,253.710373 333.970337,253.937759 
	C344.947388,254.173981 354.309906,246.105835 354.744965,235.290512 
	C355.172607,224.659180 354.940918,213.996811 354.765198,203.351913 
	C354.745178,202.138123 353.221497,200.949127 352.395020,199.748611 
	C351.484283,201.028229 349.816986,202.288879 349.784363,203.590546 
	C349.554901,212.735641 349.747925,221.890488 349.610535,231.039276 
	C349.568726,233.824692 348.913300,236.600876 348.189972,240.129486 
M399.809082,217.369720 
	C403.142365,212.793839 406.552185,208.270081 409.736725,203.592941 
	C410.294739,202.773392 409.906921,201.309845 409.955902,200.143707 
	C408.650604,200.306305 407.186707,200.160812 406.088684,200.726028 
	C405.159698,201.204224 404.653564,202.504761 403.961578,203.442276 
	C399.465332,209.533661 394.969452,215.625305 390.160431,222.140915 
	C385.292145,215.542023 380.901154,209.293274 376.143494,203.337448 
	C374.858978,201.729477 371.580963,199.597382 370.730469,200.128387 
	C367.189117,202.339417 370.660309,204.328033 371.882172,206.061661 
	C376.743164,212.958740 381.806519,219.713196 386.810730,226.542007 
	C385.133301,228.823074 383.653778,230.831360 382.178162,232.842484 
	C378.238220,238.212250 374.216156,243.525635 370.444031,249.010864 
	C369.819702,249.918671 370.290802,251.579803 370.255676,252.892822 
	C371.558533,252.555832 372.975189,252.429749 374.125031,251.809204 
	C374.918488,251.380981 375.338013,250.265274 375.932953,249.462982 
	C380.455750,243.364105 384.980560,237.266769 389.881195,230.661545 
	C394.829254,237.382507 399.421356,243.665710 404.069977,249.906876 
	C405.500000,251.826782 406.834290,254.822998 409.763000,252.471375 
	C410.374542,251.980331 409.423859,248.642258 408.399078,247.168091 
	C403.495880,240.114410 398.319519,233.250595 393.237610,226.315735 
	C395.434784,223.293716 397.389252,220.605530 399.809082,217.369720 
M458.584137,206.828247 
	C460.363129,206.899994 462.142151,206.971725 463.921143,207.043472 
	C463.194214,205.615387 462.842682,203.507599 461.681274,202.866150 
	C451.901001,197.464417 441.903900,197.190567 432.443634,203.389252 
	C422.520782,209.891022 418.965515,219.614822 420.672333,231.113846 
	C422.314911,242.180511 428.858063,249.440826 439.457306,252.877747 
	C446.804626,255.260223 453.968628,254.030685 460.678986,250.597824 
	C462.160889,249.839722 462.893280,247.616516 463.970764,246.067963 
	C462.196716,246.065399 460.406433,245.919479 458.655212,246.118225 
	C457.721161,246.224243 456.874786,246.975128 455.954559,247.350983 
	C443.379150,252.487350 430.088226,246.166733 426.786346,233.291855 
	C424.427429,224.093994 425.921051,215.528656 433.248108,209.065643 
	C440.631897,202.552490 449.165710,202.423080 458.584137,206.828247 
M534.162048,246.261841 
	C534.159546,242.934418 534.155212,239.606979 534.154785,236.279556 
	C534.153503,225.465378 534.246582,214.649368 534.035828,203.839310 
	C534.009399,202.483978 532.382507,201.159866 531.497192,199.821274 
	C530.562927,201.068161 528.831116,202.305313 528.815796,203.563385 
	C528.629395,218.867340 528.717346,234.174423 528.674194,249.480530 
	C528.667114,251.974060 529.574463,253.084579 532.194397,253.055527 
	C540.678345,252.961456 549.165588,253.099594 557.646851,252.921097 
	C558.735962,252.898178 559.796875,251.535324 560.870789,250.793152 
	C559.832825,249.948868 558.849121,248.470795 557.746948,248.376480 
	C554.113220,248.065506 550.430420,248.386978 546.777954,248.217880 
	C542.587708,248.023895 538.409607,247.565430 534.162048,246.261841 
M160.680450,258.704773 
	C163.561905,259.494965 166.450684,260.259583 169.323242,261.080902 
	C174.817474,262.651733 177.804550,260.784027 179.043381,255.214447 
	C180.230988,249.875122 181.647125,244.586975 182.905960,239.262909 
	C183.200241,238.018356 183.264954,236.719528 183.435272,235.445679 
	C182.737656,235.268829 182.040039,235.091965 181.342407,234.915115 
	C179.255875,241.093414 177.054169,247.236450 175.144394,253.468903 
	C174.463470,255.691040 174.247269,257.848297 171.100296,257.017517 
	C165.199295,255.459686 159.295547,253.912186 153.113708,252.286987 
	C153.341629,250.997406 153.455704,249.878098 153.744080,248.805634 
	C154.779739,244.953964 153.491272,243.191330 149.360794,243.207291 
	C147.985947,243.212616 146.433990,242.250168 145.328995,241.303146 
	C144.973495,240.998459 145.602219,238.549561 146.107193,238.427002 
	C147.514328,238.085449 149.101166,238.589844 150.601227,238.498932 
	C152.474548,238.385391 155.668671,238.475372 155.950516,237.663971 
	C156.864899,235.031601 156.709351,232.027588 156.965820,229.166702 
	C156.417786,229.078918 155.869751,228.991135 155.321716,228.903351 
	C154.431931,230.767914 153.542145,232.632492 152.654175,234.493256 
	C146.665695,232.110352 142.469437,233.541534 140.966629,238.437820 
	C139.410187,243.508835 142.313080,246.815613 149.675674,248.358612 
	C149.097839,254.218765 150.222794,255.962814 155.556458,257.390930 
	C156.999527,257.777283 158.464661,258.081299 160.680450,258.704773 
M119.052193,229.497574 
	C118.002823,233.339874 116.886803,237.165497 115.920418,241.028564 
	C114.623024,246.214798 116.406517,249.002884 121.530632,250.026108 
	C122.833527,250.286285 124.148880,250.492615 125.440399,250.799789 
	C130.785965,252.071167 136.124588,253.371719 141.465759,254.661545 
	C141.030289,253.102829 140.280212,252.222549 139.333084,251.866730 
	C134.078583,249.892563 128.861877,247.727005 123.458099,246.274948 
	C120.211494,245.402557 119.398224,244.246185 120.376755,241.098816 
	C121.655327,236.986389 122.740173,232.788269 123.524117,228.555862 
	C124.110718,225.388870 124.932114,223.616837 128.685593,224.895676 
	C132.203308,226.094177 133.936844,224.611115 133.981552,220.723007 
	C133.998795,219.223495 135.123840,217.652664 136.041611,216.319000 
	C136.223511,216.054657 138.488297,216.604218 138.552292,216.986267 
	C138.817322,218.567749 138.471313,220.240219 138.605637,221.858017 
	C138.758865,223.703735 138.767761,226.866837 139.567307,227.115356 
	C142.256775,227.951248 145.269836,227.745972 148.159088,227.939056 
	C148.239243,227.397705 148.319397,226.856369 148.399567,226.315018 
	C146.553879,225.459167 144.708191,224.603302 142.903732,223.766571 
	C144.729706,217.447006 143.233826,213.472763 138.693771,212.123520 
	C133.850220,210.684082 130.494263,213.551376 128.598312,220.749008 
	C122.165268,220.205856 121.294655,220.944626 119.052193,229.497574 
M186.497955,198.750900 
	C179.123932,197.072021 171.749908,195.393127 164.375900,193.714249 
	C164.178696,194.426559 163.981476,195.138870 163.784271,195.851196 
	C169.995483,197.905945 176.139038,200.212112 182.446503,201.909042 
	C185.584732,202.753342 186.666092,203.816223 185.696854,207.036743 
	C184.358414,211.484039 183.125244,215.989319 182.281616,220.550140 
	C181.701920,223.684174 180.527634,224.400482 177.546051,223.393600 
	C173.692810,222.092361 171.977295,223.693024 172.080566,227.820786 
	C172.114197,229.164474 171.106232,230.729004 170.137878,231.796204 
	C169.803970,232.164200 167.361328,231.516144 167.239670,231.007477 
	C166.903473,229.601959 167.374435,228.024017 167.356979,226.516220 
	C167.336517,224.747299 167.589752,221.664444 166.937958,221.440567 
	C164.121841,220.473206 161.018188,220.342926 158.019180,219.908035 
	C157.875412,220.580307 157.731644,221.252579 157.587891,221.924850 
	C159.448868,222.769821 161.309845,223.614792 163.173111,224.462982 
	C161.174591,230.845016 162.582260,234.687256 167.454788,236.149902 
	C172.238892,237.586029 175.516159,234.669617 177.386169,227.312057 
	C182.850952,228.279282 184.724686,227.129959 186.092926,222.043686 
	C187.387482,217.231445 188.629562,212.402008 190.069580,207.632950 
	C191.163803,204.009079 190.686615,201.073318 186.497955,198.750900 
M130.060226,187.524765 
	C128.993286,189.847916 127.600845,192.080429 126.923866,194.512146 
	C125.264885,200.471176 123.936005,206.522125 122.474289,212.536087 
	C124.482071,211.588776 125.684464,210.247559 126.257103,208.676727 
	C127.958168,204.010483 129.723785,199.327072 130.853424,194.507233 
	C131.627777,191.203217 132.776581,190.463364 135.981552,191.485886 
	C140.405258,192.897171 144.959320,193.960938 149.519287,194.860641 
	C152.153854,195.380432 153.502625,196.104996 152.443436,199.101425 
	C151.053558,203.033386 152.219376,205.145569 156.812012,205.014938 
	C158.142136,204.977112 159.688354,206.097076 160.756287,207.092911 
	C161.089035,207.403214 160.348480,209.809998 159.798645,209.935013 
	C158.425735,210.247238 156.676468,210.201141 155.446945,209.574936 
	C152.952271,208.304352 150.616791,208.064148 149.736969,210.935989 
	C148.936371,213.549286 149.220947,216.495026 149.027191,219.294205 
	C149.559128,219.391800 150.091064,219.489395 150.623001,219.586975 
	C151.510864,217.770905 152.398712,215.954849 153.284012,214.143997 
	C159.741898,215.840515 163.780075,214.312073 165.043945,209.712631 
	C166.395035,204.795792 164.331573,202.364029 156.654999,199.826385 
	C156.711441,193.397491 155.757126,192.220840 149.518875,190.675278 
	C145.647324,189.716064 141.839279,188.473663 137.938812,187.667862 
	C135.590347,187.182678 133.119186,187.291550 130.060226,187.524765 
z"/>
<path fill="#304EA0" opacity="1.000000" stroke="none" 
	d="
M76.349640,278.875214 
	C76.923157,277.781647 77.551178,276.225586 78.384064,276.106873 
	C80.663338,275.782043 83.028862,276.097870 85.360229,276.097931 
	C253.620743,276.101746 421.881256,276.096252 590.141785,276.164398 
	C591.302856,276.164856 592.463623,277.173096 592.848267,277.892639 
	C422.398895,278.074219 252.725800,278.071259 83.052734,278.112061 
	C81.367622,278.112488 79.682648,278.692139 77.997604,279.001343 
	C77.497604,279.023712 76.997604,279.046051 76.349640,278.875214 
z"/>
<path fill="#000000" opacity="1.000000" stroke="none" 
	d="
M78.466431,278.998291 
	C79.682648,278.692139 81.367622,278.112488 83.052734,278.112061 
	C252.725800,278.071259 422.398895,278.074219 592.535645,278.147766 
	C592.999268,278.220978 592.999084,278.507263 592.999390,278.650391 
	C591.340088,278.862274 589.680603,278.991119 588.021057,278.991211 
	C418.325806,278.998810 248.630524,278.996735 78.466431,278.998291 
z"/>
<path fill="#131F40" opacity="1.000000" stroke="none" 
	d="
M77.956871,166.905457 
	C79.620575,166.866531 81.284271,166.793549 82.947975,166.793488 
	C250.541367,166.788284 418.134766,166.788788 585.728149,166.786453 
	C587.560425,166.786423 589.392639,166.754196 591.665771,167.026596 
	C592.064026,167.541306 592.021301,167.766434 591.516663,167.997772 
	C421.709351,168.002319 252.363953,168.000885 83.018555,167.995239 
	C81.355247,167.995178 79.691940,167.939209 78.013618,167.658173 
	C77.984695,167.239822 77.970779,167.072647 77.956871,166.905457 
z"/>
<path fill="#284186" opacity="1.000000" stroke="none" 
	d="
M37.014572,236.103195 
	C37.312866,236.586792 37.611160,237.070404 37.517838,237.814819 
	C36.436188,238.009338 35.746159,237.943054 35.056126,237.876785 
	C35.048279,228.242752 35.040436,218.608719 35.364410,208.455505 
	C36.150372,207.977066 36.604511,208.017822 37.058651,208.058578 
	C37.058651,208.058578 37.110012,208.432968 37.062363,209.101593 
	C37.014671,218.547867 37.014622,227.325531 37.014572,236.103195 
z"/>
<path fill="#131F40" opacity="1.000000" stroke="none" 
	d="
M633.859619,242.793884 
	C629.714783,240.914459 632.944153,238.856552 634.002319,235.992813 
	C634.085999,226.761765 634.043091,218.308578 634.000244,209.855377 
	C634.012451,209.085938 634.024719,208.316498 634.397949,207.181366 
	C635.139099,206.956467 635.519287,207.097290 635.899536,207.238098 
	C635.899109,217.145401 635.898682,227.052689 635.694702,237.675812 
	C635.024963,239.596298 634.558838,240.800949 634.092651,242.005585 
	C634.035156,242.179169 633.977661,242.352753 633.859619,242.793884 
z"/>
<path fill="#0D142A" opacity="1.000000" stroke="none" 
	d="
M39.097343,247.230011 
	C41.189964,250.807297 43.242718,254.630783 45.159103,258.521423 
	C45.295700,258.798737 44.431980,259.568726 43.675911,260.142395 
	C42.323906,258.635010 41.329372,257.094879 40.487446,255.111816 
	C39.901104,253.469772 39.162155,252.270630 38.423203,251.071487 
	C38.161934,250.919098 38.035763,250.691727 38.285301,250.061157 
	C38.616066,249.151108 38.706219,248.569305 38.796368,247.987488 
	C38.872356,247.822495 38.948345,247.657516 39.097343,247.230011 
z"/>
<path fill="#0B1124" opacity="1.000000" stroke="none" 
	d="
M626.943359,261.300873 
	C625.934143,261.312012 625.134399,261.184906 623.737732,260.962921 
	C625.684143,257.959930 627.419983,255.169647 629.322327,252.498001 
	C629.544495,252.185959 630.686523,252.528915 631.619751,252.748199 
	C630.275818,255.672989 628.714294,258.417816 626.943359,261.300873 
z"/>
<path fill="#0D142A" opacity="1.000000" stroke="none" 
	d="
M51.976151,269.423401 
	C52.358952,268.350800 52.912861,267.568787 53.761421,266.370789 
	C55.647614,268.708344 57.496059,270.999115 59.211533,273.554321 
	C56.768127,272.450500 54.457691,271.082245 51.976151,269.423401 
z"/>
<path fill="#0B1124" opacity="1.000000" stroke="none" 
	d="
M41.978062,192.907516 
	C40.934044,195.889450 39.890030,198.871399 38.502655,201.939636 
	C38.417503,200.916702 38.675716,199.807434 38.912971,198.020691 
	C38.846184,196.890945 38.800343,196.438705 38.754505,195.986465 
	C39.155884,194.289352 39.557262,192.592255 40.402607,190.868866 
	C41.016056,190.987442 41.185539,191.132278 41.353062,191.508575 
	C41.560089,192.129181 41.769077,192.518341 41.978062,192.907516 
z"/>
<path fill="#0B1124" opacity="1.000000" stroke="none" 
	d="
M612.178833,273.805206 
	C610.213257,271.236786 611.633728,269.841370 613.997986,269.207977 
	C614.983704,268.943909 616.189758,269.501831 617.356445,270.092682 
	C615.777039,271.580658 614.136780,272.661926 612.178833,273.805206 
z"/>
<path fill="#0D142A" opacity="1.000000" stroke="none" 
	d="
M62.204109,275.445007 
	C64.852730,273.472076 67.679115,272.418060 70.010513,276.487610 
	C67.524734,276.491241 64.990608,276.102783 62.204109,275.445007 
z"/>
<path fill="#395CBE" opacity="1.000000" stroke="none" 
	d="
M68.027420,169.209717 
	C66.014565,170.822556 63.887383,172.077209 61.405800,172.882263 
	C61.357399,171.929260 61.663403,171.425858 61.969398,170.922455 
	C61.969398,170.922455 61.995937,170.992172 62.298225,171.067017 
	C63.380844,170.520706 64.161179,169.899536 64.941513,169.278366 
	C65.932037,169.136093 66.922562,168.993820 68.027420,169.209717 
z"/>
<path fill="#395CBE" opacity="1.000000" stroke="none" 
	d="
M52.067867,179.023987 
	C50.654030,180.796783 49.240189,182.569580 47.391140,183.853394 
	C46.952507,182.886276 46.949085,182.408112 46.945663,181.929962 
	C46.945663,181.929962 46.995533,181.985092 47.401051,181.851288 
	C47.859726,180.962936 47.912884,180.208405 47.966042,179.453857 
	C47.883274,179.230118 47.947857,179.063354 48.671097,179.305023 
	C50.144218,179.445633 51.106041,179.234802 52.067867,179.023987 
z"/>
<path fill="#0B1124" opacity="1.000000" stroke="none" 
	d="
M623.106201,184.149414 
	C623.106201,184.149414 623.000122,183.819717 623.050293,183.288406 
	C622.483215,181.769226 621.866089,180.781342 621.480225,179.548782 
	C621.865601,179.140869 622.019653,178.977631 622.173706,178.814407 
	C623.986389,180.815201 625.799072,182.815994 627.445190,185.316971 
	C627.087219,185.965302 626.895813,186.113464 626.470642,186.115646 
	C625.808472,185.637253 625.380066,185.304825 624.951660,184.972412 
	C624.951660,184.972397 625.021545,184.979172 624.935425,184.714966 
	C624.268311,184.350311 623.687256,184.249863 623.106201,184.149414 
z"/>
<path fill="#0B1124" opacity="1.000000" stroke="none" 
	d="
M600.062256,169.109726 
	C600.062256,169.109726 599.999695,168.646164 599.986328,168.412659 
	C603.001892,168.765533 606.030823,169.351913 609.124634,170.379456 
	C609.032166,170.993057 608.874817,171.165512 608.359131,171.243896 
	C605.354614,170.469788 602.708435,169.789764 600.062256,169.109726 
z"/>
<path fill="#0B1124" opacity="1.000000" stroke="none" 
	d="
M602.326660,276.950928 
	C602.694214,275.854004 603.413208,274.849701 604.132202,273.845398 
	C604.756958,274.415558 605.381714,274.985718 606.024048,275.902618 
	C604.920532,276.514069 603.799316,276.778778 602.326660,276.950928 
z"/>
<path fill="#0B1124" opacity="1.000000" stroke="none" 
	d="
M61.634228,170.719360 
	C61.663403,171.425858 61.357399,171.929260 61.036728,172.749573 
	C61.022057,173.066483 60.998985,173.019485 60.674328,172.947433 
	C58.658150,173.689713 56.966633,174.504044 55.019020,175.056915 
	C54.579960,174.634048 54.396999,174.472610 54.214043,174.311188 
	C56.575714,173.046219 58.937386,171.781250 61.634228,170.719360 
z"/>
<path fill="#0B1124" opacity="1.000000" stroke="none" 
	d="
M609.437317,170.573273 
	C611.886902,171.509323 614.088623,172.692749 616.268066,174.339569 
	C616.075623,174.969177 615.905457,175.135376 615.420410,175.170120 
	C614.052490,174.698196 612.999329,174.357727 611.946228,174.017258 
	C611.946228,174.017258 612.001526,173.996048 611.898682,173.709366 
	C611.181030,173.291321 610.566345,173.159958 609.951599,173.028595 
	C609.951599,173.028595 610.000854,173.001495 610.005493,172.739197 
	C609.579285,172.097229 609.148376,171.717590 608.717468,171.337952 
	C608.874817,171.165512 609.032166,170.993057 609.437317,170.573273 
z"/>
<path fill="#0B1124" opacity="1.000000" stroke="none" 
	d="
M52.044891,179.011597 
	C51.106041,179.234802 50.144218,179.445633 48.817429,179.312057 
	C50.182087,177.512833 51.911709,176.058029 53.927689,174.457199 
	C54.396999,174.472610 54.579960,174.634048 54.842751,175.304352 
	C54.282024,176.560791 53.641472,177.308334 53.000916,178.055862 
	C53.000916,178.055862 52.997440,177.996445 52.723183,178.013306 
	C52.307743,178.370453 52.166561,178.710770 52.025375,179.051071 
	C52.025379,179.051071 52.021919,178.999191 52.044891,179.011597 
z"/>
<path fill="#0B1124" opacity="1.000000" stroke="none" 
	d="
M616.519775,174.574432 
	C618.479553,175.645416 620.165344,176.944977 622.012451,178.529480 
	C622.019653,178.977631 621.865601,179.140869 621.215759,179.366425 
	C620.131958,179.299530 619.543823,179.170288 618.955750,179.041046 
	C618.955750,179.041046 618.997559,178.998444 619.020020,178.711288 
	C618.677124,178.289658 618.311768,178.155182 617.946472,178.020706 
	C617.946472,178.020706 617.999634,177.999802 617.960571,177.720917 
	C617.192749,176.728561 616.463989,176.015076 615.735229,175.301575 
	C615.905457,175.135376 616.075623,174.969177 616.519775,174.574432 
z"/>
<path fill="#4876F2" opacity="1.000000" stroke="none" 
	d="
M635.934937,206.886993 
	C635.519287,207.097290 635.139099,206.956467 634.454285,206.800629 
	C633.906555,205.409729 633.663452,204.033875 633.451294,202.378235 
	C634.311646,203.577621 635.140991,205.056763 635.934937,206.886993 
z"/>
<path fill="#395CBE" opacity="1.000000" stroke="none" 
	d="
M633.198669,200.969681 
	C632.277405,200.223480 631.653931,199.429535 631.373413,198.323532 
	C632.148193,197.998596 632.580017,197.985733 633.011841,197.972870 
	C633.173340,198.955887 633.334900,199.938904 633.198669,200.969681 
z"/>
<path fill="#0B1124" opacity="1.000000" stroke="none" 
	d="
M627.588379,185.627869 
	C628.764404,186.919083 629.630615,188.399567 630.333252,190.380676 
	C630.002075,191.013641 629.834473,191.145966 629.450134,191.085526 
	C628.803894,190.598709 628.374329,190.304657 627.944824,190.010590 
	C627.944824,190.010590 628.001099,189.998291 628.013306,189.679230 
	C627.665466,189.242020 627.305481,189.123871 626.945435,189.005737 
	C626.945435,189.005737 627.000854,189.000580 627.202759,188.708252 
	C627.171204,187.697830 626.937805,186.979721 626.704407,186.261612 
	C626.895813,186.113464 627.087219,185.965302 627.588379,185.627869 
z"/>
<path fill="#4876F2" opacity="1.000000" stroke="none" 
	d="
M70.020302,277.463867 
	C70.944496,277.242554 71.944504,277.332764 72.983505,277.685974 
	C72.047035,277.891144 71.071579,277.833282 70.020302,277.463867 
z"/>
<path fill="#4876F2" opacity="1.000000" stroke="none" 
	d="
M598.295837,278.427399 
	C598.882935,277.818817 599.670898,277.431183 600.734131,277.106781 
	C600.171814,277.662750 599.334290,278.155548 598.295837,278.427399 
z"/>
<path fill="#4876F2" opacity="1.000000" stroke="none" 
	d="
M35.035912,238.228577 
	C35.746159,237.943054 36.436188,238.009338 37.472912,238.097824 
	C37.569576,238.885162 37.319550,239.650284 36.947311,240.711533 
	C36.221962,240.198563 35.618828,239.389481 35.035912,238.228577 
z"/>
<path fill="#0B1124" opacity="1.000000" stroke="none" 
	d="
M46.614723,181.779419 
	C46.949085,182.408112 46.952507,182.886276 47.056984,183.720520 
	C47.158035,184.076614 47.101166,184.065659 46.766617,184.054016 
	C45.712379,184.774460 44.992695,185.506531 44.000854,186.018219 
	C43.533413,185.669922 43.338127,185.541992 43.142845,185.414062 
	C44.189827,184.152328 45.236809,182.890594 46.614723,181.779419 
z"/>
<path fill="#4876F2" opacity="1.000000" stroke="none" 
	d="
M37.313026,207.886261 
	C36.604511,208.017822 36.150372,207.977066 35.357498,207.989502 
	C35.396736,207.074570 35.774704,206.106430 36.480881,205.065018 
	C37.061863,205.899124 37.314632,206.806534 37.313026,207.886261 
z"/>
<path fill="#4876F2" opacity="1.000000" stroke="none" 
	d="
M632.510803,247.001221 
	C632.648621,246.115494 633.120972,245.219162 633.880005,244.190231 
	C633.726257,245.035309 633.285767,246.012970 632.510803,247.001221 
z"/>
<path fill="#4876F2" opacity="1.000000" stroke="none" 
	d="
M591.978577,167.991562 
	C592.021301,167.766434 592.064026,167.541306 592.142334,166.973526 
	C593.119629,167.110260 594.061279,167.589645 595.010071,168.387238 
	C594.844238,168.768326 594.671265,168.831238 594.053955,168.628128 
	C593.066040,168.238571 592.522278,168.115067 591.978577,167.991562 
z"/>
<path fill="#4876F2" opacity="1.000000" stroke="none" 
	d="
M634.445312,241.921555 
	C634.558838,240.800949 635.024963,239.596298 635.720642,238.136658 
	C635.566101,239.200287 635.182007,240.518906 634.445312,241.921555 
z"/>
<path fill="#010101" opacity="1.000000" stroke="none" 
	d="
M38.500347,251.421112 
	C39.162155,252.270630 39.901104,253.469772 40.419510,254.797943 
	C39.658474,253.874893 39.117981,252.822815 38.500347,251.421112 
z"/>
<path fill="#4876F2" opacity="1.000000" stroke="none" 
	d="
M77.747864,166.691437 
	C77.970779,167.072647 77.984695,167.239822 78.005524,167.916779 
	C78.009613,168.598999 78.006775,168.771423 78.003929,168.943848 
	C77.560226,169.048172 77.116516,169.152496 76.339478,169.168854 
	C76.517052,168.213074 77.027954,167.345245 77.747864,166.691437 
z"/>
<path fill="#0B1124" opacity="1.000000" stroke="none" 
	d="
M64.607773,169.242706 
	C64.161179,169.899536 63.380844,170.520706 62.268005,171.045151 
	C62.715015,170.367966 63.494534,169.787506 64.607773,169.242706 
z"/>
<path fill="#0B1124" opacity="1.000000" stroke="none" 
	d="
M41.361008,188.521988 
	C41.813889,187.625565 42.266769,186.729126 42.931248,185.623383 
	C43.338127,185.541992 43.533413,185.669922 43.884041,186.297318 
	C43.506718,187.651489 42.974060,188.506210 42.174980,189.146454 
	C41.726044,188.795303 41.543526,188.658646 41.361008,188.521988 
z"/>
<path fill="#4876F2" opacity="1.000000" stroke="none" 
	d="
M38.481102,196.032257 
	C38.800343,196.438705 38.846184,196.890945 38.821144,197.678497 
	C38.569408,197.368561 38.388554,196.723297 38.481102,196.032257 
z"/>
<path fill="#4876F2" opacity="1.000000" stroke="none" 
	d="
M38.521774,248.028564 
	C38.706219,248.569305 38.616066,249.151108 38.247986,249.861206 
	C38.062431,249.349533 38.154804,248.709595 38.521774,248.028564 
z"/>
<path fill="#4876F2" opacity="1.000000" stroke="none" 
	d="
M632.487854,249.963196 
	C632.178101,249.561066 632.142029,249.110535 632.159180,248.324158 
	C632.395447,248.630478 632.578491,249.272629 632.487854,249.963196 
z"/>
<path fill="#0B1124" opacity="1.000000" stroke="none" 
	d="
M622.885742,266.132690 
	C622.345398,265.745697 621.905701,265.347626 621.465942,264.949554 
	C621.959595,265.012695 622.453186,265.075836 623.050415,265.458038 
	C623.154053,265.777100 622.986328,266.121643 622.885742,266.132690 
z"/>
<path fill="#0D142A" opacity="1.000000" stroke="none" 
	d="
M47.861313,265.844788 
	C48.265293,265.333069 48.672909,264.912628 49.080524,264.492157 
	C48.990314,264.976807 48.900097,265.461487 48.486420,266.030334 
	C48.162952,266.114502 47.864948,265.936035 47.861313,265.844788 
z"/>
<path fill="#395CBE" opacity="1.000000" stroke="none" 
	d="
M69.997330,168.719421 
	C70.007095,168.989227 69.548759,169.164856 69.304466,169.142029 
	C69.226799,168.656631 69.393425,168.194031 69.560051,167.731445 
	C69.702560,167.970825 69.845070,168.210220 69.997330,168.719421 
z"/>
<path fill="#395CBE" opacity="1.000000" stroke="none" 
	d="
M70.750008,168.951172 
	C70.699211,169.114578 70.402618,169.231705 70.058716,169.169769 
	C70.175682,168.962097 70.339951,168.933502 70.750008,168.951172 
z"/>
<path fill="#0B1124" opacity="1.000000" stroke="none" 
	d="
M47.670834,179.706787 
	C47.912884,180.208405 47.859726,180.962936 47.364437,181.844910 
	C47.073414,181.301483 47.224518,180.630600 47.670834,179.706787 
z"/>
<path fill="#0B1124" opacity="1.000000" stroke="none" 
	d="
M40.600891,190.615692 
	C40.571907,189.900314 40.788612,189.411804 41.183167,188.722656 
	C41.543526,188.658646 41.726044,188.795303 42.066566,189.402481 
	C41.934727,190.341034 41.644875,190.809082 41.355026,191.277130 
	C41.185539,191.132278 41.016056,190.987442 40.600891,190.615692 
z"/>
<path fill="#0B1124" opacity="1.000000" stroke="none" 
	d="
M630.432800,190.698669 
	C631.003967,190.998993 631.311951,191.481979 631.429932,192.400757 
	C631.080322,192.954178 630.920654,193.071854 630.546387,193.007599 
	C630.110107,192.309891 629.888489,191.794083 629.666870,191.278290 
	C629.834473,191.145966 630.002075,191.013641 630.432800,190.698669 
z"/>
<path fill="#0B1124" opacity="1.000000" stroke="none" 
	d="
M631.494141,192.681992 
	C632.000549,193.023804 632.252808,193.520126 632.314453,194.453979 
	C631.984497,195.000336 631.845093,195.109161 631.508362,195.012589 
	C631.127625,194.267975 630.944336,193.728745 630.761047,193.189514 
	C630.920654,193.071854 631.080322,192.954178 631.494141,192.681992 
z"/>
<path fill="#0B1124" opacity="1.000000" stroke="none" 
	d="
M632.337769,194.734772 
	C632.750122,195.201324 632.948547,195.824631 632.866516,196.717224 
	C632.586060,196.986496 632.131042,196.912674 632.044189,196.633820 
	C631.873535,195.975967 631.789612,195.596970 631.705750,195.217972 
	C631.845093,195.109161 631.984497,195.000336 632.337769,194.734772 
z"/>
<path fill="#4876F2" opacity="1.000000" stroke="none" 
	d="
M632.131042,196.912674 
	C632.131042,196.912674 632.586060,196.986496 632.809814,197.044342 
	C633.033630,197.102173 633.014099,197.538300 633.012939,197.755585 
	C632.580017,197.985733 632.148193,197.998596 631.394043,197.994629 
	C631.071716,197.977798 630.914856,197.504776 631.225464,197.235626 
	C631.734314,196.948547 631.932678,196.930618 632.131042,196.912674 
z"/>
<path fill="#4876F2" opacity="1.000000" stroke="none" 
	d="
M36.474403,246.456360 
	C36.524170,246.428253 36.424641,246.484482 36.474403,246.456360 
z"/>
<path fill="#4876F2" opacity="1.000000" stroke="none" 
	d="
M36.472244,199.449661 
	C36.529026,199.416565 36.415462,199.482758 36.472244,199.449661 
z"/>
<path fill="#F0F0F0" opacity="1.000000" stroke="none" 
	d="
M294.503601,242.431427 
	C290.146149,249.823273 284.048035,253.300491 275.752991,253.060379 
	C269.763489,252.887009 263.761810,252.910980 257.771820,253.075089 
	C254.768921,253.157364 253.621460,252.121429 253.640991,249.061111 
	C253.737625,233.908966 253.745514,218.755447 253.636673,203.603470 
	C253.613678,200.401718 255.083572,199.599854 257.900391,199.644730 
	C264.059631,199.742859 270.231049,199.479416 276.379639,199.757690 
	C287.028412,200.239639 294.053223,205.951996 296.768646,216.306610 
	C299.074524,225.099625 298.657440,233.775909 294.503601,242.431427 
M259.155396,241.414200 
	C259.155396,243.537598 259.155396,245.660995 259.155396,248.240082 
	C264.571503,248.240082 269.525696,248.343582 274.474060,248.218246 
	C284.373566,247.967514 290.243408,243.503998 291.660156,233.710236 
	C292.470978,228.105133 291.984680,222.099457 290.918976,216.495361 
	C289.840790,210.825546 285.900146,206.127960 280.043762,205.354630 
	C273.270203,204.460175 266.287903,205.146484 259.155396,205.146484 
	C259.155396,217.158081 259.155396,228.794128 259.155396,241.414200 
z"/>
<path fill="#EAEAEA" opacity="1.000000" stroke="none" 
	d="
M479.253265,244.852112 
	C479.253265,231.206482 479.369598,218.041779 479.181030,204.881424 
	C479.125885,201.032471 480.245148,199.469040 484.259949,199.584625 
	C492.084656,199.809891 499.924774,199.515518 507.747894,199.766312 
	C509.284302,199.815567 510.772858,201.356430 512.283447,202.209351 
	C510.714203,203.063705 509.169617,204.598038 507.571533,204.655899 
	C500.252960,204.920898 492.919403,204.772400 485.233276,204.772400 
	C485.233276,210.764999 485.233276,216.650757 485.233276,223.063141 
	C491.457672,223.063141 497.743896,222.871521 504.003967,223.191437 
	C505.668213,223.276489 507.252228,224.931320 508.873077,225.865417 
	C507.254578,226.581543 505.658203,227.849548 504.013641,227.915451 
	C497.872314,228.161606 491.715210,228.013824 485.220154,228.013824 
	C485.220154,234.709625 485.220154,241.238770 485.220154,248.225632 
	C492.734619,248.225632 500.187653,248.083771 507.626984,248.339569 
	C509.205566,248.393845 510.734253,249.899033 512.285950,250.735748 
	C510.748352,251.503494 509.232452,252.878204 507.669373,252.934082 
	C500.846649,253.178055 494.010193,253.039062 487.178741,253.038971 
	C479.256012,253.038879 479.256012,253.038803 479.253265,244.852112 
z"/>
<path fill="#EAEAEA" opacity="1.000000" stroke="none" 
	d="
M204.253265,218.003052 
	C204.253387,213.005585 204.393631,208.501587 204.207169,204.011124 
	C204.070053,200.708908 205.470795,199.577652 208.629166,199.617508 
	C216.791245,199.720505 224.958618,199.537323 233.115921,199.760162 
	C234.525070,199.798660 235.895157,201.267776 237.283279,202.076080 
	C235.925400,202.974014 234.591904,204.602158 233.205551,204.648468 
	C225.592010,204.902832 217.965530,204.769852 210.112305,204.769852 
	C210.112305,210.921463 210.112305,216.684082 210.112305,223.062622 
	C216.003784,223.062622 221.949661,222.838821 227.862228,223.184769 
	C229.914017,223.304840 231.883209,224.836899 233.890121,225.724060 
	C231.980453,226.487396 230.098221,227.814407 228.156006,227.908936 
	C222.212143,228.198273 216.245209,228.014084 210.085052,228.014084 
	C210.085052,234.831848 210.085052,241.246780 210.085052,248.225449 
	C217.117966,248.225449 224.049301,248.221237 230.980637,248.229080 
	C232.312027,248.230591 233.790726,247.930878 234.929886,248.412476 
	C235.908722,248.826309 236.499680,250.157532 237.262146,251.083099 
	C236.449570,251.730026 235.644669,252.928162 234.823257,252.939560 
	C225.495880,253.069107 216.161591,253.142456 206.843643,252.816483 
	C205.930984,252.784576 204.403244,250.014114 204.369003,248.487686 
	C204.144836,238.496735 204.253403,228.498291 204.253265,218.003052 
z"/>
<path fill="#EAEAEA" opacity="1.000000" stroke="none" 
	d="
M348.364441,239.755386 
	C348.913300,236.600876 349.568726,233.824692 349.610535,231.039276 
	C349.747925,221.890488 349.554901,212.735641 349.784363,203.590546 
	C349.816986,202.288879 351.484283,201.028229 352.395020,199.748627 
	C353.221497,200.949127 354.745178,202.138123 354.765198,203.351913 
	C354.940918,213.996811 355.172607,224.659180 354.744965,235.290512 
	C354.309906,246.105835 344.947388,254.173981 333.970337,253.937759 
	C323.403839,253.710373 314.616455,245.297195 314.320831,234.583023 
	C314.036438,224.275299 314.158936,213.951675 314.374207,203.640701 
	C314.401428,202.336685 316.076294,201.067093 316.987762,199.781540 
	C317.907379,201.056427 319.593964,202.313385 319.624298,203.609100 
	C319.850037,213.253815 319.705505,222.906464 319.760437,232.556137 
	C319.807678,240.850784 323.987091,246.544571 331.337463,248.532196 
	C337.810638,250.282623 344.053680,247.169830 348.364441,239.755386 
z"/>
<path fill="#EBEBEB" opacity="1.000000" stroke="none" 
	d="
M399.576416,217.643524 
	C397.389252,220.605530 395.434784,223.293716 393.237610,226.315735 
	C398.319519,233.250595 403.495880,240.114410 408.399078,247.168091 
	C409.423859,248.642258 410.374542,251.980331 409.763000,252.471375 
	C406.834290,254.822998 405.500000,251.826782 404.069977,249.906876 
	C399.421356,243.665710 394.829254,237.382507 389.881195,230.661545 
	C384.980560,237.266769 380.455750,243.364105 375.932953,249.462982 
	C375.338013,250.265274 374.918488,251.380981 374.125031,251.809204 
	C372.975189,252.429749 371.558533,252.555832 370.255676,252.892822 
	C370.290802,251.579803 369.819702,249.918671 370.444031,249.010864 
	C374.216156,243.525635 378.238220,238.212250 382.178162,232.842484 
	C383.653778,230.831360 385.133301,228.823074 386.810730,226.542007 
	C381.806519,219.713196 376.743164,212.958740 371.882172,206.061661 
	C370.660309,204.328033 367.189117,202.339417 370.730469,200.128387 
	C371.580963,199.597382 374.858978,201.729477 376.143494,203.337448 
	C380.901154,209.293274 385.292145,215.542023 390.160431,222.140915 
	C394.969452,215.625305 399.465332,209.533661 403.961578,203.442276 
	C404.653564,202.504761 405.159698,201.204224 406.088684,200.726028 
	C407.186707,200.160812 408.650604,200.306305 409.955902,200.143707 
	C409.906921,201.309845 410.294739,202.773392 409.736725,203.592941 
	C406.552185,208.270081 403.142365,212.793839 399.576416,217.643524 
z"/>
<path fill="#EFEFEF" opacity="1.000000" stroke="none" 
	d="
M458.250000,206.620361 
	C449.165710,202.423080 440.631897,202.552490 433.248108,209.065643 
	C425.921051,215.528656 424.427429,224.093994 426.786346,233.291855 
	C430.088226,246.166733 443.379150,252.487350 455.954559,247.350983 
	C456.874786,246.975128 457.721161,246.224243 458.655212,246.118225 
	C460.406433,245.919479 462.196716,246.065399 463.970764,246.067963 
	C462.893280,247.616516 462.160889,249.839722 460.678986,250.597824 
	C453.968628,254.030685 446.804626,255.260223 439.457306,252.877747 
	C428.858063,249.440826 422.314911,242.180511 420.672333,231.113846 
	C418.965515,219.614822 422.520782,209.891022 432.443634,203.389252 
	C441.903900,197.190567 451.901001,197.464417 461.681274,202.866150 
	C462.842682,203.507599 463.194214,205.615387 463.921143,207.043457 
	C462.142151,206.971725 460.363129,206.899994 458.250000,206.620361 
z"/>
<path fill="#4C7CFF" opacity="1.000000" stroke="none" 
	d="
M78.465309,168.993408 
	C78.006775,168.771423 78.009613,168.598999 78.020538,168.167953 
	C79.691940,167.939209 81.355247,167.995178 83.018555,167.995239 
	C252.363953,168.000885 421.709351,168.002319 591.516663,167.997772 
	C592.522278,168.115067 593.066040,168.238571 593.781128,168.585953 
	C592.294373,168.872467 590.636169,168.989883 588.978027,168.989975 
	C420.292908,168.998245 251.607819,168.997543 82.922714,168.999481 
	C81.590706,168.999496 80.258698,169.027832 78.465309,168.993408 
z"/>
<path fill="#F3F3F3" opacity="1.000000" stroke="none" 
	d="
M534.194153,246.741852 
	C538.409607,247.565430 542.587708,248.023895 546.777954,248.217880 
	C550.430420,248.386978 554.113220,248.065506 557.746948,248.376480 
	C558.849121,248.470795 559.832825,249.948868 560.870789,250.793152 
	C559.796875,251.535324 558.735962,252.898178 557.646851,252.921097 
	C549.165588,253.099594 540.678345,252.961456 532.194397,253.055527 
	C529.574463,253.084579 528.667114,251.974060 528.674194,249.480530 
	C528.717346,234.174423 528.629395,218.867340 528.815796,203.563385 
	C528.831116,202.305313 530.562927,201.068161 531.497192,199.821289 
	C532.382507,201.159866 534.009399,202.483978 534.035828,203.839310 
	C534.246582,214.649368 534.153503,225.465378 534.154785,236.279556 
	C534.155212,239.606979 534.159546,242.934418 534.194153,246.741852 
z"/>
<path fill="#0041EF" opacity="1.000000" stroke="none" 
	d="
M160.300049,258.563965 
	C158.464661,258.081299 156.999527,257.777283 155.556458,257.390930 
	C150.222794,255.962814 149.097839,254.218765 149.675674,248.358612 
	C142.313080,246.815613 139.410187,243.508835 140.966629,238.437820 
	C142.469437,233.541534 146.665695,232.110352 152.654175,234.493256 
	C153.542145,232.632492 154.431931,230.767914 155.321716,228.903351 
	C155.869751,228.991135 156.417786,229.078918 156.965820,229.166702 
	C156.709351,232.027588 156.864899,235.031601 155.950516,237.663971 
	C155.668671,238.475372 152.474548,238.385391 150.601227,238.498932 
	C149.101166,238.589844 147.514328,238.085449 146.107193,238.427002 
	C145.602219,238.549561 144.973495,240.998459 145.328995,241.303146 
	C146.433990,242.250168 147.985947,243.212616 149.360794,243.207291 
	C153.491272,243.191330 154.779739,244.953964 153.744080,248.805634 
	C153.455704,249.878098 153.341629,250.997406 153.113708,252.286987 
	C159.295547,253.912186 165.199295,255.459686 171.100296,257.017517 
	C174.247269,257.848297 174.463470,255.691040 175.144394,253.468903 
	C177.054169,247.236450 179.255875,241.093414 181.342407,234.915115 
	C182.040039,235.091965 182.737656,235.268829 183.435272,235.445679 
	C183.264954,236.719528 183.200241,238.018356 182.905960,239.262909 
	C181.647125,244.586975 180.230988,249.875122 179.043381,255.214447 
	C177.804550,260.784027 174.817474,262.651733 169.323242,261.080902 
	C166.450684,260.259583 163.561905,259.494965 160.300049,258.563965 
z"/>
<path fill="#0041EF" opacity="1.000000" stroke="none" 
	d="
M119.136261,229.102234 
	C121.294655,220.944626 122.165268,220.205856 128.598312,220.749008 
	C130.494263,213.551376 133.850220,210.684082 138.693771,212.123520 
	C143.233826,213.472763 144.729706,217.447006 142.903732,223.766571 
	C144.708191,224.603302 146.553879,225.459167 148.399567,226.315018 
	C148.319397,226.856369 148.239243,227.397705 148.159088,227.939056 
	C145.269836,227.745972 142.256775,227.951248 139.567307,227.115356 
	C138.767761,226.866837 138.758865,223.703735 138.605637,221.858017 
	C138.471313,220.240219 138.817322,218.567749 138.552292,216.986267 
	C138.488297,216.604218 136.223511,216.054657 136.041611,216.319000 
	C135.123840,217.652664 133.998795,219.223495 133.981552,220.723007 
	C133.936844,224.611115 132.203308,226.094177 128.685593,224.895676 
	C124.932114,223.616837 124.110718,225.388870 123.524117,228.555862 
	C122.740173,232.788269 121.655327,236.986389 120.376755,241.098816 
	C119.398224,244.246185 120.211494,245.402557 123.458099,246.274948 
	C128.861877,247.727005 134.078583,249.892563 139.333084,251.866730 
	C140.280212,252.222549 141.030289,253.102829 141.465759,254.661545 
	C136.124588,253.371719 130.785965,252.071167 125.440399,250.799789 
	C124.148880,250.492615 122.833527,250.286285 121.530632,250.026108 
	C116.406517,249.002884 114.623024,246.214798 115.920418,241.028564 
	C116.886803,237.165497 118.002823,233.339874 119.136261,229.102234 
z"/>
<path fill="#0041EF" opacity="1.000000" stroke="none" 
	d="
M186.861008,198.895355 
	C190.686615,201.073318 191.163803,204.009079 190.069580,207.632950 
	C188.629562,212.402008 187.387482,217.231445 186.092926,222.043686 
	C184.724686,227.129959 182.850952,228.279282 177.386169,227.312057 
	C175.516159,234.669617 172.238892,237.586029 167.454788,236.149902 
	C162.582260,234.687256 161.174591,230.845016 163.171967,224.461380 
	C161.309845,223.614792 159.448868,222.769821 157.587891,221.924850 
	C157.731644,221.252579 157.875412,220.580307 158.019180,219.908035 
	C161.018188,220.342926 164.121841,220.473206 166.937958,221.440567 
	C167.589752,221.664444 167.336517,224.747299 167.356979,226.516220 
	C167.374435,228.024017 166.903473,229.601959 167.239670,231.007477 
	C167.361328,231.516144 169.803970,232.164200 170.137878,231.796204 
	C171.106232,230.729004 172.114197,229.164474 172.080566,227.820786 
	C171.977295,223.693024 173.692810,222.092361 177.546051,223.393600 
	C180.527634,224.400482 181.701920,223.684174 182.281616,220.550140 
	C183.125244,215.989319 184.358414,211.484039 185.696854,207.036743 
	C186.666092,203.816223 185.584732,202.753342 182.446503,201.909042 
	C176.139038,200.212112 169.995483,197.905945 163.784271,195.851196 
	C163.981476,195.138870 164.178696,194.426559 164.375900,193.714249 
	C171.749908,195.393127 179.123932,197.072021 186.861008,198.895355 
z"/>
<path fill="#0041F1" opacity="1.000000" stroke="none" 
	d="
M130.381683,187.329102 
	C133.119186,187.291550 135.590347,187.182678 137.938812,187.667862 
	C141.839279,188.473663 145.647324,189.716064 149.518875,190.675278 
	C155.757126,192.220840 156.711441,193.397491 156.654999,199.826385 
	C164.331573,202.364029 166.395035,204.795792 165.043945,209.712631 
	C163.780075,214.312073 159.741898,215.840515 153.284012,214.143997 
	C152.398712,215.954849 151.510864,217.770905 150.623001,219.586975 
	C150.091064,219.489395 149.559128,219.391800 149.027191,219.294205 
	C149.220947,216.495026 148.936371,213.549286 149.736969,210.935989 
	C150.616791,208.064148 152.952271,208.304352 155.446945,209.574936 
	C156.676468,210.201141 158.425735,210.247238 159.798645,209.935013 
	C160.348480,209.809998 161.089035,207.403214 160.756287,207.092911 
	C159.688354,206.097076 158.142136,204.977112 156.812012,205.014938 
	C152.219376,205.145569 151.053558,203.033386 152.443436,199.101425 
	C153.502625,196.104996 152.153854,195.380432 149.519287,194.860641 
	C144.959320,193.960938 140.405258,192.897171 135.981552,191.485886 
	C132.776581,190.463364 131.627777,191.203217 130.853424,194.507233 
	C129.723785,199.327072 127.958168,204.010483 126.257103,208.676727 
	C125.684464,210.247559 124.482071,211.588776 122.474289,212.536087 
	C123.936005,206.522125 125.264885,200.471176 126.923866,194.512146 
	C127.600845,192.080429 128.993286,189.847916 130.381683,187.329102 
z"/>
<path fill="#395CBE" opacity="1.000000" stroke="none" 
	d="
M633.633911,210.100723 
	C634.043091,218.308578 634.085999,226.761765 634.066833,235.640747 
	C633.670227,233.246445 633.092346,230.429825 633.052185,227.605545 
	C632.970398,221.854568 633.178772,216.099472 633.633911,210.100723 
z"/>
<path fill="#395CBE" opacity="1.000000" stroke="none" 
	d="
M37.375919,235.856720 
	C37.014622,227.325531 37.014671,218.547867 37.021294,209.286011 
	C37.351414,211.307648 37.925999,213.811111 37.949398,216.319717 
	C38.009373,222.748672 37.824341,229.179901 37.375919,235.856720 
z"/>
<path fill="#395CBE" opacity="1.000000" stroke="none" 
	d="
M608.359131,171.243896 
	C609.148376,171.717590 609.579285,172.097229 609.995972,172.765579 
	C606.725769,171.962753 603.469849,170.871231 600.138062,169.444717 
	C602.708435,169.789764 605.354614,170.469788 608.359131,171.243896 
z"/>
<path fill="#395CBE" opacity="1.000000" stroke="none" 
	d="
M41.353062,191.508575 
	C41.644875,190.809082 41.934727,190.341034 42.332993,189.616943 
	C42.974060,188.506210 43.506718,187.651489 44.156193,186.517700 
	C44.992695,185.506531 45.712379,184.774460 46.742722,184.037659 
	C45.551353,186.875458 44.049324,189.717972 42.262680,192.734009 
	C41.769077,192.518341 41.560089,192.129181 41.353062,191.508575 
z"/>
<path fill="#395CBE" opacity="1.000000" stroke="none" 
	d="
M53.351448,178.206329 
	C53.641472,177.308334 54.282024,176.560791 55.098846,175.565811 
	C56.966633,174.504044 58.658150,173.689713 60.699547,172.952911 
	C58.600277,174.805893 56.151127,176.581345 53.351448,178.206329 
z"/>
<path fill="#395CBE" opacity="1.000000" stroke="none" 
	d="
M632.044189,196.633820 
	C631.932678,196.930618 631.734314,196.948547 631.237915,196.986755 
	C629.888489,194.914871 628.837158,192.822708 627.865295,190.370575 
	C628.374329,190.304657 628.803894,190.598709 629.450134,191.085526 
	C629.888489,191.794083 630.110107,192.309891 630.546387,193.007599 
	C630.944336,193.728745 631.127625,194.267975 631.508362,195.012589 
	C631.789612,195.596970 631.873535,195.975967 632.044189,196.633820 
z"/>
<path fill="#395CBE" opacity="1.000000" stroke="none" 
	d="
M615.420410,175.170135 
	C616.463989,176.015076 617.192749,176.728561 617.952881,177.748383 
	C615.931885,176.942841 613.879517,175.830933 611.886719,174.368134 
	C612.999329,174.357727 614.052490,174.698196 615.420410,175.170135 
z"/>
<path fill="#395CBE" opacity="1.000000" stroke="none" 
	d="
M618.890808,179.384460 
	C619.543823,179.170288 620.131958,179.299530 620.984497,179.611115 
	C621.866089,180.781342 622.483215,181.769226 623.062866,183.115692 
	C621.625549,182.225494 620.225708,180.976685 618.890808,179.384460 
z"/>
<path fill="#395CBE" opacity="1.000000" stroke="none" 
	d="
M626.470642,186.115646 
	C626.937805,186.979721 627.171204,187.697830 627.191284,188.733612 
	C626.175476,187.902802 625.373108,186.754318 624.761230,185.289124 
	C625.380066,185.304825 625.808472,185.637253 626.470642,186.115646 
z"/>
<path fill="#395CBE" opacity="1.000000" stroke="none" 
	d="
M609.969604,173.397034 
	C610.566345,173.159958 611.181030,173.291321 611.900818,173.738892 
	C611.333069,173.958557 610.660339,173.862015 609.969604,173.397034 
z"/>
<path fill="#395CBE" opacity="1.000000" stroke="none" 
	d="
M623.301636,184.413406 
	C623.687256,184.249863 624.268311,184.350311 624.935791,184.750076 
	C624.513855,184.925400 624.005432,184.801392 623.301636,184.413406 
z"/>
<path fill="#395CBE" opacity="1.000000" stroke="none" 
	d="
M626.972900,189.314270 
	C627.305481,189.123871 627.665466,189.242020 628.007629,189.707458 
	C627.659912,189.910797 627.330139,189.766800 626.972900,189.314270 
z"/>
<path fill="#0B1124" opacity="1.000000" stroke="none" 
	d="
M609.458618,274.058105 
	C609.262634,273.984192 609.054626,273.865173 608.846558,273.746155 
	C608.965210,273.780853 609.083862,273.815582 609.367920,273.947937 
	C609.533386,274.045593 609.446594,274.013031 609.458618,274.058105 
z"/>
<path fill="#395CBE" opacity="1.000000" stroke="none" 
	d="
M617.843262,178.361725 
	C618.311768,178.155182 618.677124,178.289658 619.003418,178.735474 
	C618.556274,178.932144 618.148132,178.817444 617.843262,178.361725 
z"/>
<path fill="#395CBE" opacity="1.000000" stroke="none" 
	d="
M52.382660,179.123459 
	C52.166561,178.710770 52.307743,178.370453 52.752296,178.019501 
	C52.950424,178.404510 52.845181,178.800171 52.382660,179.123459 
z"/>
<path fill="#030303" opacity="1.000000" stroke="none" 
	d="
M259.155396,240.922180 
	C259.155396,228.794128 259.155396,217.158081 259.155396,205.146484 
	C266.287903,205.146484 273.270203,204.460175 280.043762,205.354630 
	C285.900146,206.127960 289.840790,210.825546 290.918976,216.495361 
	C291.984680,222.099457 292.470978,228.105133 291.660156,233.710236 
	C290.243408,243.503998 284.373566,247.967514 274.474060,248.218246 
	C269.525696,248.343582 264.571503,248.240082 259.155396,248.240082 
	C259.155396,245.660995 259.155396,243.537598 259.155396,240.922180 
z"/>
</svg>